HIERARCHY
ROOT root
{
	OFFSET	0	13.1	24.9
	CHANNELS 6  Xposition Yposition Zposition Xrotation Yrotation Zrotation
	JOINT spine_1
	{
		OFFSET	0	9.99999	0
		CHANNELS 3  Xrotation Yrotation Zrotation
		JOINT spine_2
		{
			OFFSET	0	112	-10
			CHANNELS 3  Xrotation Yrotation Zrotation
			JOINT spine_3
			{
				OFFSET	0	206.5	19.3
				CHANNELS 3  Xrotation Yrotation Zrotation
				JOINT spine_4
				{
					OFFSET	0	110.4	14.6
					CHANNELS 3  Xrotation Yrotation Zrotation
					JOINT neck_1
					{
						OFFSET	0	71.8	-50.3
						CHANNELS 3  Xrotation Yrotation Zrotation
						JOINT neck_2
						{
							OFFSET	0	86.2	-25.8
							CHANNELS 3  Xrotation Yrotation Zrotation
							JOINT head_ee
							{
								OFFSET	0	179.8	-8.7
								CHANNELS 3  Xrotation Yrotation Zrotation
								End Site
								{
									OFFSET	1	0	0
								}
							}
						}
					}
					JOINT left_clavicle
					{
						OFFSET	-43.2	22.4	-70.8
						CHANNELS 3  Xrotation Yrotation Zrotation
						JOINT left_shoulder
						{
							OFFSET	-93.9	-5.79999	48.7
							CHANNELS 3  Xrotation Yrotation Zrotation
							JOINT left_elbow
							{
								OFFSET	-291.4	-30.8	15.2
								CHANNELS 3  Xrotation Yrotation Zrotation
								JOINT left_lowarm_twist
								{
									OFFSET	-110.7	-3.89999	13.6
									CHANNELS 3  Xrotation Yrotation Zrotation
									JOINT left_hand
									{
										OFFSET	-110.7	-3.89999	13.6
										CHANNELS 3  Xrotation Yrotation Zrotation
										JOINT left_ee
										{
											OFFSET	-80.8	-5.10001	12.1
											CHANNELS 3  Xrotation Yrotation Zrotation
											End Site
											{
												OFFSET	1	0	0
											}
										}
									}
								}
							}
						}
					}
					JOINT right_clavicle
					{
						OFFSET	43.2	22.4	-70.8
						CHANNELS 3  Xrotation Yrotation Zrotation
						JOINT right_shoulder
						{
							OFFSET	93.9	-5.79999	48.7
							CHANNELS 3  Xrotation Yrotation Zrotation
							JOINT right_elbow
							{
								OFFSET	291.4	-30.8	15.2
								CHANNELS 3  Xrotation Yrotation Zrotation
								JOINT right_lowarm_twist
								{
									OFFSET	110.7	-3.89999	13.6
									CHANNELS 3  Xrotation Yrotation Zrotation
									JOINT right_hand
									{
										OFFSET	110.7	-3.89999	13.6
										CHANNELS 3  Xrotation Yrotation Zrotation
										JOINT right_ee
										{
											OFFSET	80.8	-5.10001	12.1
											CHANNELS 3  Xrotation Yrotation Zrotation
											End Site
											{
												OFFSET	1	0	0
											}
										}
									}
								}
							}
						}
					}
				}
			}
		}
	}
	JOINT left_hip
	{
		OFFSET	-82.8	-127.5	0.300001
		CHANNELS 3  Xrotation Yrotation Zrotation
		JOINT left_knee
		{
			OFFSET	-28.2	-396.7	2.2
			CHANNELS 3  Xrotation Yrotation Zrotation
			JOINT left_ankle
			{
				OFFSET	-11.7	-411.3	35.4
				CHANNELS 3  Xrotation Yrotation Zrotation
				JOINT left_toes
				{
					OFFSET	0	-60	-88.6
					CHANNELS 3  Xrotation Yrotation Zrotation
					JOINT left_foot_ee
					{
						OFFSET	-22.5	-16.5	-42.2
						CHANNELS 3  Xrotation Yrotation Zrotation
						End Site
						{
							OFFSET	1	0	0
						}
					}
				}
			}
		}
	}
	JOINT right_hip
	{
		OFFSET	82.8	-127.5	0.300001
		CHANNELS 3  Xrotation Yrotation Zrotation
		JOINT right_knee
		{
			OFFSET	28.2	-396.7	2.2
			CHANNELS 3  Xrotation Yrotation Zrotation
			JOINT right_ankle
			{
				OFFSET	11.7	-411.3	35.4
				CHANNELS 3  Xrotation Yrotation Zrotation
				JOINT right_toes
				{
					OFFSET	0	-60	-88.6
					CHANNELS 3  Xrotation Yrotation Zrotation
					JOINT right_foot_ee
					{
						OFFSET	22.5	-16.5	-42.2
						CHANNELS 3  Xrotation Yrotation Zrotation
						End Site
						{
							OFFSET	1	0	0
						}
					}
				}
			}
		}
	}
}
MOTION
Frames: 12
Frame Time: 0.02
3520.0430952 702.818 -1561.59448425 -3.81897470057 59.5558938363 0.0537195931477 0.273614 0.619859 3.37693 0.279867 0.403848 3.40948 0.306904 -0.303565 3.41985 0.290666 0.24002 3.42489 -11.519 19.193 -0.793018 -12.3174 36.8864 4.92596 -0.0 0.0 -0.0 -3.58199 16.9246 -3.59329 -16.072 -14.4055 66.4163 1.71848 -40.4038 0.632385 -33.286 -2.26706 3.53796 -0.904084 28.51 6.22793 -0.0 0.0 -0.0 13.0508 26.0869 -25.7842 4.53334 22.7616 -71.4159 0.325331 9.15524 -0.0260477 27.1954 -0.144487 3.43855 -0.400376 -0.350265 2.52429 0.0 0.0 0.0 22.7629 18.1088 -5.99101 -62.6321 -2.49081 8.80888 37.9411 7.52461 -4.67881 -26.9722 0.0 0.0 -0.0 0.0 -0.0 0.0871097 15.8003 1.38063 -9.8964 -0.279258 -1.49123 39.7873 2.06661 4.87599 -11.0169 0.0 0.0 0.0 0.0 0.0 
3523.76122961 702.818 -1563.81409163 -3.56599675361 57.1397312832 -0.24339848428 0.273614 0.619859 3.37693 0.279867 0.403848 3.40948 0.306904 -0.303565 3.41985 0.290666 0.24002 3.42489 -11.519 19.193 -0.793018 -12.3174 36.8864 4.92596 -0.0 0.0 -0.0 -3.58199 16.9246 -3.59329 -16.072 -14.4055 66.4163 1.71848 -40.4038 0.632385 -33.286 -2.26706 3.53796 -0.904084 28.51 6.22793 -0.0 0.0 -0.0 13.0508 26.0869 -25.7842 4.53334 22.7616 -71.4159 0.325331 9.15524 -0.0260477 27.1954 -0.144487 3.43855 -0.400376 -0.350265 2.52429 0.0 0.0 0.0 22.7629 18.1088 -5.99101 -62.6321 -2.49081 8.80888 37.9411 7.52461 -4.67881 -26.9722 0.0 0.0 -0.0 0.0 -0.0 0.0871097 15.8003 1.38063 -9.8964 -0.279258 -1.49123 39.7873 2.06661 4.87599 -11.0169 0.0 0.0 0.0 0.0 0.0 
3487.40343123 700.975 -1557.85595298 -6.23376430127 68.6015692547 2.26183589991 0.195252 0.72996 3.49681 0.201912 0.506113 3.53611 0.236651 -0.233645 3.56446 0.219077 0.331861 3.55667 -9.42774 19.2927 -0.3733 -9.84952 36.5538 4.55195 -0.0 0.0 -0.0 -2.56097 15.7588 -2.20791 -27.8051 -17.2994 66.4152 1.42114 -35.1432 0.450059 -26.6018 -1.65159 2.94216 -0.147703 28.9936 10.5321 -0.0 0.0 -0.0 14.1842 26.5077 -28.3709 13.2805 25.4318 -71.6769 0.258349 7.29316 -0.0164648 26.1221 -0.169843 3.30379 0.0318784 7.09985 2.79829 0.0 0.0 0.0 26.5875 14.3991 -9.88459 -61.9753 -2.41702 8.7394 39.9195 11.4154 -4.8814 -29.4943 0.0 0.0 -0.0 0.0 -0.0 -3.38973 13.4516 2.06961 -5.86802 -0.196742 -0.878686 37.0385 -0.0306402 4.61164 -7.94532 0.0 0.0 0.0 0.0 0.0 
3478.84012743 708.021 -1554.87517427 -7.06632596298 69.5317298993 2.36705433835 0.220321 0.887273 3.67753 0.227608 0.651632 3.72644 0.273992 -0.127758 3.78075 0.254357 0.470516 3.75358 -10.5117 19.066 0.299221 -11.0921 35.8246 5.53133 -0.0 0.0 -0.0 -1.47969 16.0757 -0.441716 -30.5747 -16.7313 65.0718 1.2208 -31.1622 0.340432 -25.5532 -1.56153 2.84239 -0.172453 29.0993 10.4345 -0.0 0.0 -0.0 14.194 26.8237 -28.3527 13.9335 26.0237 -71.9179 0.449205 12.5454 -0.0493763 25.8051 -0.176847 3.2639 0.322407 11.2097 2.58974 0.0 0.0 0.0 26.5263 16.2636 -10.391 -55.246 -1.7091 7.98126 33.0513 11.0119 -4.22272 -29.7188 0.0 0.0 -0.0 0.0 -0.0 -5.04589 13.6758 3.36646 -3.31561 -0.122244 -0.494087 32.6946 -1.07607 4.18356 -4.55091 0.0 0.0 0.0 0.0 0.0 
3465.38975233 710.311 -1547.66165357 -7.97977059312 70.7267124482 2.77084756599 0.290789 1.27445 3.71672 0.297877 1.03554 3.79014 0.370848 0.242399 3.92139 0.35042 0.85821 3.83413 -9.06127 18.6203 -0.952702 -9.39196 35.6267 3.66484 -0.0 0.0 -0.0 -0.654582 16.2576 0.882083 -32.2222 -16.1691 64.8004 1.04213 -27.3039 0.253124 -24.7659 -1.49514 2.76642 0.0468435 28.1882 11.3211 -0.0 0.0 -0.0 13.9765 26.9458 -27.828 14.3845 25.1922 -71.341 0.641786 17.6367 -0.0995653 26.6468 -0.157763 3.36973 0.631881 17.123 3.05314 0.0 0.0 0.0 25.6984 18.3664 -10.3842 -48.1739 -1.06688 7.10211 26.1034 9.63479 -3.46254 -30.1227 0.0 0.0 -0.0 0.0 -0.0 -5.72108 13.7045 4.13469 -2.90489 -0.108657 -0.432517 32.4694 -2.36435 4.15394 -0.731192 0.0 0.0 0.0 0.0 0.0 
3450.66496891 711.706 -1542.06640604 -10.2227304832 72.5855109591 4.8404270696 0.396255 1.20024 3.7118 0.403405 0.961789 3.78052 0.470982 0.1788 3.89668 0.45067 0.791512 3.81975 -8.06802 17.6897 -2.42718 -8.20118 34.7683 1.62028 -0.0 0.0 -0.0 0.144728 16.8061 2.19644 -35.0503 -14.9104 64.0758 0.920077 -24.5022 0.19979 -23.7115 -1.40786 2.66327 0.250184 24.8559 11.3153 -0.0 0.0 -0.0 13.661 27.3794 -27.0362 14.5137 24.629 -71.0623 0.827927 22.2999 -0.163185 26.2879 -0.16609 3.32464 1.10772 22.5092 2.26375 0.0 0.0 0.0 24.582 24.8659 -10.8392 -26.6243 0.158489 4.04609 7.10437 3.18733 -1.02321 -32.4741 0.0 0.0 -0.0 0.0 -0.0 -6.57766 13.5973 5.13867 -2.54184 -0.09628 -0.378175 30.5849 -3.79771 3.95337 4.1809 -0.0 -0.0 0.0 0.0 0.0 
3436.96714286 702.223 -1540.10461484 -13.3312429216 75.6115743816 8.79779453502 0.526006 0.91462 3.57102 0.532838 0.685687 3.62189 0.579404 -0.0531857 3.68576 0.56084 0.529184 3.64801 -6.30579 17.2176 -3.80307 -6.12771 34.6704 -0.482573 -0.0 0.0 -0.0 0.623754 17.4802 3.00631 -37.4049 -13.5243 63.0434 0.767117 -20.8071 0.140843 -23.3612 -1.37929 2.62865 0.40747 21.1619 10.9441 -0.0 0.0 -0.0 13.8983 27.2941 -27.5994 15.7095 23.5921 -70.4029 1.0456 27.3816 -0.254717 26.3797 -0.163987 3.33618 0.855508 24.3962 4.7469 0.0 0.0 0.0 26.4674 28.2734 -11.5919 -19.6328 0.299827 2.98317 3.45088 -2.84778 -0.510121 -34.7639 0.0 0.0 -0.0 0.0 -0.0 -7.52849 13.5909 5.18717 -1.81053 -0.0703023 -0.268949 32.3369 -2.12379 4.14153 8.1034 -0.0 -0.0 0.0 0.0 0.0 
3436.89530316 702.223 -1539.9533544 -13.3881441793 75.6729034266 8.85653032421 0.526006 0.91462 3.57102 0.532838 0.685687 3.62189 0.579404 -0.0531857 3.68576 0.56084 0.529184 3.64801 -6.30579 17.2176 -3.80307 -6.12771 34.6704 -0.482573 -0.0 0.0 -0.0 0.623754 17.4802 3.00631 -37.4049 -13.5243 63.0434 0.767117 -20.8071 0.140843 -23.3612 -1.37929 2.62865 0.40747 21.1619 10.9441 -0.0 0.0 -0.0 13.8983 27.2941 -27.5994 15.7095 23.5921 -70.4029 1.0456 27.3816 -0.254717 26.3797 -0.163987 3.33618 0.855508 24.3962 4.7469 0.0 0.0 0.0 26.4674 28.2734 -11.5919 -19.6328 0.299827 2.98317 3.45088 -2.84778 -0.510121 -34.7639 0.0 0.0 -0.0 0.0 -0.0 -7.52849 13.5909 5.18717 -1.81053 -0.0703023 -0.268949 32.3369 -2.12379 4.14153 8.1034 -0.0 -0.0 0.0 0.0 0.0 
3436.55744192 702.223 -1539.23614916 -13.6643623105 75.9630625784 9.14143064368 0.526006 0.91462 3.57102 0.532838 0.685687 3.62189 0.579404 -0.0531857 3.68576 0.56084 0.529184 3.64801 -6.30579 17.2176 -3.80307 -6.12771 34.6704 -0.482573 -0.0 0.0 -0.0 0.623754 17.4802 3.00631 -37.4049 -13.5243 63.0434 0.767117 -20.8071 0.140843 -23.3612 -1.37929 2.62865 0.40747 21.1619 10.9441 -0.0 0.0 -0.0 13.8983 27.2941 -27.5994 15.7095 23.5921 -70.4029 1.0456 27.3816 -0.254717 26.3797 -0.163987 3.33618 0.855508 24.3962 4.7469 0.0 0.0 0.0 26.4674 28.2734 -11.5919 -19.6328 0.299827 2.98317 3.45088 -2.84778 -0.510121 -34.7639 0.0 0.0 -0.0 0.0 -0.0 -7.52849 13.5909 5.18717 -1.81053 -0.0703023 -0.268949 32.3369 -2.12379 4.14153 8.1034 -0.0 -0.0 0.0 0.0 0.0 
3426.72363767 697.068 -1536.42821192 -15.6728256561 76.0643192594 11.5543111381 0.639319 1.00302 3.62163 0.646285 0.770698 3.67801 0.698929 0.0268961 3.75768 0.679763 0.619601 3.70641 -6.70178 16.306 -4.31533 -6.56927 33.3783 -1.0562 -0.0 0.0 -0.0 1.83535 18.5637 4.93872 -40.0615 -11.1058 61.5286 0.652744 -17.9187 0.102911 -22.9804 -1.34848 2.59082 0.418626 18.1258 9.91859 -0.0 0.0 -0.0 14.466 27.6549 -28.8776 17.209 22.0687 -68.8511 1.20006 30.7293 -0.329767 26.5742 -0.159471 3.36061 0.391426 23.1681 7.25412 0.0 0.0 0.0 29.2644 29.4438 -11.1285 -11.8575 0.303795 1.79112 -2.20854 -8.24511 0.339202 -36.9829 0.0 0.0 -0.0 0.0 -0.0 -8.98427 13.294 5.20368 0.642796 0.0270025 0.0949445 30.8006 0.80113 4.00144 11.6897 -0.0 -0.0 0.0 0.0 0.0 
3419.59948416 695.331 -1536.11570579 -19.239337187 76.9519932278 15.3549139009 0.807177 0.974719 3.78306 0.814839 0.7322 3.83731 0.866842 -0.0310413 3.90632 0.84603 0.58581 3.86233 -3.89206 16.3825 -4.7476 -3.33872 33.5702 -2.42199 -0.0 0.0 -0.0 1.75985 19.6294 4.89303 -41.66 -10.0325 61.3012 0.55301 -15.3202 0.0743784 -23.3017 -1.37447 2.62276 0.0869802 15.2893 6.79572 -0.0 0.0 -0.0 14.5085 28.4588 -28.8613 18.8048 21.6197 -68.2802 1.495 36.5205 -0.493298 27.7248 -0.131054 3.50483 0.0030713 22.0106 9.33299 0.0 0.0 0.0 27.0734 29.5518 -10.0021 -1.57619 0.0616828 0.234017 -6.10503 -13.7652 0.978439 -38.2107 0.0 0.0 -0.0 0.0 -0.0 -9.00891 13.3293 4.47124 1.09309 0.0465528 0.161276 28.2556 3.07426 3.74878 13.8184 -0.0 -0.0 0.0 0.0 0.0 
3419.17310315 695.331 -1535.02923731 -19.8274611801 77.3304136762 15.9581630074 0.807177 0.974719 3.78306 0.814839 0.7322 3.83731 0.866842 -0.0310413 3.90632 0.84603 0.58581 3.86233 -3.89206 16.3825 -4.7476 -3.33872 33.5702 -2.42199 -0.0 0.0 -0.0 1.75985 19.6294 4.89303 -41.66 -10.0325 61.3012 0.55301 -15.3202 0.0743784 -23.3017 -1.37447 2.62276 0.0869802 15.2893 6.79572 -0.0 0.0 -0.0 14.5085 28.4588 -28.8613 18.8048 21.6197 -68.2802 1.495 36.5205 -0.493298 27.7248 -0.131054 3.50483 0.0030713 22.0106 9.33299 0.0 0.0 0.0 27.0734 29.5518 -10.0021 -1.57619 0.0616828 0.234017 -6.10503 -13.7652 0.978439 -38.2107 0.0 0.0 -0.0 0.0 -0.0 -9.00891 13.3293 4.47124 1.09309 0.0465528 0.161276 28.2556 3.07426 3.74878 13.8184 -0.0 -0.0 0.0 0.0 0.0 
